<?xml version="1.0" encoding="UTF-8" standalone="no"?>
<!-- Created with Inkscape (http://www.inkscape.org/) -->

<svg
   xmlns:dc="http://purl.org/dc/elements/1.1/"
   xmlns:cc="http://creativecommons.org/ns#"
   xmlns:rdf="http://www.w3.org/1999/02/22-rdf-syntax-ns#"
   xmlns:svg="http://www.w3.org/2000/svg"
   xmlns="http://www.w3.org/2000/svg"
   xmlns:sodipodi="http://sodipodi.sourceforge.net/DTD/sodipodi-0.dtd"
   xmlns:inkscape="http://www.inkscape.org/namespaces/inkscape"
   id="svg7384"
   sodipodi:docname="draft-export-symbolic.svg"
   version="1.1"
   inkscape:version="0.92.2 (5c3e80d, 2017-08-06)"
   height="16"
   width="16">
  <metadata
     id="metadata90">
    <rdf:RDF>
      <cc:Work
         rdf:about="">
        <dc:format>image/svg+xml</dc:format>
        <dc:type
           rdf:resource="http://purl.org/dc/dcmitype/StillImage" />
        <dc:title>Gnome Symbolic Icon Theme</dc:title>
      </cc:Work>
    </rdf:RDF>
  </metadata>
  <sodipodi:namedview
     inkscape:cy="9.3401668"
     pagecolor="#555753"
     borderopacity="1"
     showborder="false"
     inkscape:bbox-paths="false"
     guidetolerance="10"
     inkscape:window-width="1310"
     showguides="true"
     inkscape:object-nodes="true"
     inkscape:snap-bbox="true"
     inkscape:pageshadow="2"
     inkscape:guide-bbox="true"
     inkscape:snap-nodes="true"
     bordercolor="#666666"
     objecttolerance="10"
     id="namedview88"
     showgrid="false"
     inkscape:window-maximized="0"
     inkscape:window-x="54"
     inkscape:snap-global="true"
     inkscape:window-y="27"
     gridtolerance="10"
     inkscape:window-height="690"
     inkscape:snap-to-guides="true"
     inkscape:current-layer="layer12"
     inkscape:zoom="22.627417"
     inkscape:cx="10.145044"
     inkscape:snap-grids="true"
     inkscape:pageopacity="1">
    <inkscape:grid
       spacingx="1px"
       spacingy="1px"
       id="grid4866"
       empspacing="2"
       enabled="true"
       type="xygrid"
       snapvisiblegridlinesonly="true"
       visible="true" />
  </sodipodi:namedview>
  <title
     id="title9167">Gnome Symbolic Icon Theme</title>
  <defs
     id="defs7386" />
  <g
     inkscape:label="status"
     transform="translate(-80,-648)"
     inkscape:groupmode="layer"
     id="layer9"
     style="display:inline" />
  <g
     inkscape:label="devices"
     transform="translate(-80,-648)"
     inkscape:groupmode="layer"
     id="layer10" />
  <g
     inkscape:label="apps"
     transform="translate(-80,-648)"
     inkscape:groupmode="layer"
     id="layer11" />
  <g
     inkscape:label="actions"
     transform="translate(-80,-648)"
     inkscape:groupmode="layer"
     id="layer12">
    <path
       inkscape:connector-curvature="0"
       d="m 84.437472,657.00839 a 0.49570751,0.48607293 0 0 0 -0.309786,0.21263 l -0.991316,1.45807 a 0.49570751,0.48607293 0 1 0 0.805444,0.54677 l 0.991316,-1.45806 a 0.49570751,0.48607293 0 0 0 -0.495658,-0.75941 z m 6.939211,0 a 0.49570751,0.48607293 0 0 0 -0.309786,0.75941 l 0.991316,1.45806 a 0.49570751,0.48607293 0 1 0 0.805444,-0.54677 l -0.991315,-1.45807 a 0.49570751,0.48607293 0 0 0 -0.495659,-0.21263 z"
       id="rect4390-9"
       style="color:#bebebe;font-style:normal;font-variant:normal;font-weight:normal;font-stretch:normal;font-size:medium;line-height:normal;font-family:Sans;-inkscape-font-specification:Sans;text-indent:0;text-align:start;text-decoration:none;text-decoration-line:none;letter-spacing:normal;word-spacing:normal;text-transform:none;writing-mode:lr-tb;direction:ltr;baseline-shift:baseline;text-anchor:start;display:inline;overflow:visible;visibility:visible;fill:#bebebe;fill-opacity:1;stroke:none;stroke-width:0.98163497;marker:none;enable-background:accumulate" />
    <g
       transform="translate(-80,110)"
       id="g4555">
      <path
         inkscape:connector-curvature="0"
         d="m 163,549 v 4 h 10 v -4 z m 3.34375,1.4375 c 0.0208,-10e-4 0.0417,-10e-4 0.0625,0 0.29096,-0.0556 0.59898,0.20383 0.59375,0.5 V 551 h 2 v -0.0625 c -0.004,-0.26416 0.23582,-0.50712 0.5,-0.50712 0.26418,0 0.50373,0.24296 0.5,0.50712 V 551 c 0,0.54535 -0.45465,1 -1,1 h -2 c -0.54535,0 -1,-0.45465 -1,-1 v -0.0625 c -0.0108,-0.21706 0.13723,-0.43234 0.34375,-0.5 z"
         id="rect11668-7-5"
         sodipodi:nodetypes="ccccccsccccsccccccc"
         style="color:#000000;display:inline;overflow:visible;visibility:visible;fill:#bebebe;fill-opacity:1;fill-rule:evenodd;stroke:none;stroke-width:1;marker:none;enable-background:accumulate" />
    </g>
    <path
       inkscape:connector-curvature="0"
       d="m 89.000001,658 v -5.5625 l 1.281249,1.28125 C 90.46941,653.9069 90.7347,653.99999 91,654 h 1 v -1 c -1e-5,-0.2653 -0.0931,-0.53058 -0.28125,-0.71875 l -3,-3 L 88.4375,649 h -0.875 l -0.28125,0.28125 -2.999999,3 C 84.09306,652.46942 84.00001,652.7347 84,653 v 1 h 1 c 0.2653,-10e-6 0.53059,-0.0931 0.71875,-0.28125 L 87,652.4375 V 658 Z"
       id="path3613"
       sodipodi:nodetypes="ccccccccccccccccccc"
       style="color:#000000;font-style:normal;font-variant:normal;font-weight:normal;font-stretch:normal;font-size:medium;line-height:normal;font-family:'Bitstream Vera Sans';-inkscape-font-specification:'Bitstream Vera Sans';text-indent:0;text-align:start;text-decoration:none;text-decoration-line:none;letter-spacing:normal;word-spacing:normal;text-transform:none;writing-mode:lr-tb;direction:ltr;text-anchor:start;display:inline;overflow:visible;visibility:visible;fill:#bebebe;fill-opacity:1;stroke:none;stroke-width:2;marker:none;enable-background:accumulate" />
  </g>
  <g
     inkscape:label="places"
     transform="translate(-80,-648)"
     inkscape:groupmode="layer"
     id="layer13" />
  <g
     inkscape:label="mimetypes"
     transform="translate(-80,-648)"
     inkscape:groupmode="layer"
     id="layer14" />
  <g
     inkscape:label="emblems"
     transform="translate(-80,-648)"
     inkscape:groupmode="layer"
     id="layer15"
     style="display:inline" />
</svg>
